<svg width="1124" height="824" viewBox="0 0 1124 824" fill="none" xmlns="http://www.w3.org/2000/svg">
<path d="M1124 524C1124 689.685 989.685 824 824 824H562V0H1124V524Z" fill="url(#paint0_linear_120_467)"/>
<path d="M0 300C0 134.315 134.315 0 300 0H562V824H0V300Z" fill="url(#paint1_linear_120_467)"/>
<path d="M82 300C82 134.315 216.315 0 382 0H1042V524C1042 689.685 907.685 824 742 824H82V300Z" fill="white"/>
<path fill-rule="evenodd" clip-rule="evenodd" d="M742 824C907.685 824 1042 689.685 1042 524V0H960V524C960 689.685 825.685 824 660 824H742Z" fill="url(#paint2_linear_120_467)"/>
<path fill-rule="evenodd" clip-rule="evenodd" d="M382 0C216.315 0 82 134.315 82 300V824H164V300C164 134.315 298.315 0 464 0H382Z" fill="url(#paint3_linear_120_467)"/>
<path d="M262 493.118V332.74H343.6C366.4 332.74 382.6 337.528 391.6 347.102C400.6 356.677 405.4 372.835 405.4 396.772V429.087C405.4 453.024 400.6 469.181 391.6 478.756C382.6 488.331 366.4 493.118 343.6 493.118H262ZM305.2 457.213H337C347.2 457.213 353.2 455.418 356.8 451.827C359.8 448.835 361 439.858 361 426.095V399.764C361 386 359.8 377.622 356.8 374.032C353.2 370.441 347.2 368.646 337 368.646H305.2V457.213ZM433 493.118V332.74H553.6V368.646H476.2V396.173H551.2V427.292H476.2V457.213H555.4V493.118H433Z" fill="#A2D9F7"/>
<path d="M718.6 439.858C718.6 420.709 724 406.945 731.8 399.165C740.8 389.591 757 384.205 779.8 384.205H800.8C823.6 384.205 839.2 389.591 848.8 399.165C856.6 406.945 862 420.709 862 439.858C862 459.008 856.6 472.173 848.8 480.551C839.2 490.126 823.6 494.914 800.8 494.914H779.8C757 494.914 740.8 490.126 731.8 480.551C724 472.173 718.6 459.008 718.6 439.858ZM786.4 421.906C776.2 421.906 770.2 423.701 766.6 427.292C764.8 429.685 763 433.874 763 439.858C763 445.843 764.8 450.032 766.6 451.827C769.6 455.418 776.2 457.213 786.4 457.213H794.2C803.8 457.213 810.4 455.418 813.4 451.827C815.8 450.032 817.6 445.843 817.6 439.858C817.6 433.874 815.2 429.685 813.4 427.292C810.4 423.701 803.8 421.906 794.2 421.906H786.4Z" fill="#008DD2"/>
<path d="M616 493.118V368.646H575.2V332.74H701.2V368.646H659.8V493.118H616Z" fill="#008DD2"/>
<path d="M768.4 368.646H727.6V332.74H853.6V368.646H812.2H768.4Z" fill="#008DD2"/>
<path d="M768.4 318.976H727.6V283.669H853.6V318.976H812.2H768.4Z" fill="#51B8E9"/>
<path d="M768.4 269.906H727.6V234H853.6V269.906H812.2H768.4Z" fill="#A2D9F7"/>
<defs>
<linearGradient id="paint0_linear_120_467" x1="843" y1="824" x2="843" y2="0" gradientUnits="userSpaceOnUse">
<stop stop-color="#A2D9F7"/>
<stop offset="1" stop-color="#51B8E9"/>
</linearGradient>
<linearGradient id="paint1_linear_120_467" x1="281" y1="0" x2="281" y2="824" gradientUnits="userSpaceOnUse">
<stop stop-color="#A2D9F7"/>
<stop offset="1" stop-color="#51B8E9"/>
</linearGradient>
<linearGradient id="paint2_linear_120_467" x1="802" y1="824" x2="802" y2="0" gradientUnits="userSpaceOnUse">
<stop stop-color="#A2D9F7" stop-opacity="0"/>
<stop offset="1" stop-color="#A2D9F7"/>
</linearGradient>
<linearGradient id="paint3_linear_120_467" x1="322" y1="0" x2="322" y2="824" gradientUnits="userSpaceOnUse">
<stop stop-color="#A2D9F7" stop-opacity="0"/>
<stop offset="1" stop-color="#A2D9F7"/>
</linearGradient>
</defs>
</svg>
