<svg width="186" height="143" viewBox="0 0 186 143" fill="none" xmlns="http://www.w3.org/2000/svg">
<path fill-rule="evenodd" clip-rule="evenodd" d="M0 71.5C0 46.9581 7.14923 29.373 17.39 18.7446C28.9834 6.18378 49.6581 0 78.8347 0H106.272C135.449 0 156.124 6.18378 167.91 18.7446C177.958 29.373 185.107 46.9581 185.107 71.5C185.107 96.0419 177.958 113.627 167.91 124.255C156.124 136.816 135.449 143 106.272 143H78.8347C49.6581 143 28.9834 136.816 17.39 124.255C7.14923 113.627 0 96.0419 0 71.5ZM128.879 54.3014C128.879 52.3689 130.425 50.823 132.551 50.823H134.483C136.415 50.823 138.154 52.3689 138.154 54.3014C138.154 58.1662 138.154 84.8338 138.154 88.6987C138.154 90.6311 136.415 92.177 134.483 92.177H132.551C130.425 92.177 128.879 90.6311 128.879 88.6987C128.879 84.8338 128.879 58.1662 128.879 54.3014ZM65.5024 91.7905V107.443C65.5024 109.376 63.9566 111.115 61.8312 111.115H59.8989C57.9667 111.115 56.2277 109.376 56.2277 107.443V91.7905H55.8413C51.0107 91.7905 46.953 87.7324 46.953 82.9014V59.7122C46.953 54.8811 51.0107 50.823 55.8413 50.823H83.2788L104.147 25.5081L105.693 24.5419L105.886 24.3486H106.079V24.1554H106.272L106.466 23.9622H106.659V23.7689H106.852H107.045V23.5757H107.238H107.432V23.3824H107.625H107.818V23.1892H108.011H108.205H108.398V22.9959H108.591H108.784H108.977H109.171V22.8027H109.364H109.557H109.75H109.944H110.137H110.33H110.523L110.716 22.6095H110.91H111.103V22.8027H111.296H111.489H111.683H111.876H112.069H112.262H112.455L112.649 22.9959H112.842H113.035H113.228V23.1892H113.422H113.615H113.808L114.001 23.3824H114.194L114.388 23.5757H114.581L114.774 23.7689H114.967L115.161 23.9622H115.354V24.1554H115.547L115.74 24.3486H115.933V24.5419H116.127C118.252 26.0878 119.605 28.7932 119.605 31.6919V59.7122V71.5V71.6932V83.4811V111.308C119.605 114.207 118.252 116.912 116.127 118.458H115.933V118.651H115.74V118.845H115.547L115.354 119.038H115.161L114.967 119.231H114.774V119.424H114.581H114.388V119.618H114.194H114.001L113.808 119.811H113.615H113.422L113.228 120.004H113.035H112.842H112.649V120.197H112.455H112.262H112.069H111.876H111.683H111.489L111.296 120.391H111.103H110.91H110.716H110.523H110.33V120.197H110.137H109.944H109.75H109.557H109.364H109.171V120.004H108.977H108.784H108.591H108.398V119.811H108.205H108.011H107.818V119.618H107.625H107.432V119.424H107.238H107.045L106.852 119.231H106.659V119.038H106.466H106.272V118.845H106.079L105.886 118.651H105.693V118.458L104.147 117.685L83.2788 91.7905H65.5024Z" fill="white"/>
</svg>
