<svg width="45" height="34" viewBox="0 0 45 34" fill="none" xmlns="http://www.w3.org/2000/svg">
<path fill-rule="evenodd" clip-rule="evenodd" d="M0 17C0 11.1649 1.7 6.98378 4.13512 4.45676C6.89187 1.47027 11.8081 0 18.7459 0H25.2702C32.208 0 37.1242 1.47027 39.9269 4.45676C42.3161 6.98378 44.0161 11.1649 44.0161 17C44.0161 22.8351 42.3161 27.0162 39.9269 29.5432C37.1242 32.5297 32.208 34 25.2702 34H18.7459C11.8081 34 6.89187 32.5297 4.13512 29.5432C1.7 27.0162 0 22.8351 0 17ZM30.6459 12.9108C30.6459 12.4514 31.0134 12.0838 31.5188 12.0838H31.9783C32.4377 12.0838 32.8513 12.4514 32.8513 12.9108C32.8513 13.8297 32.8513 20.1703 32.8513 21.0892C32.8513 21.5486 32.4377 21.9162 31.9783 21.9162H31.5188C31.0134 21.9162 30.6459 21.5486 30.6459 21.0892C30.6459 20.1703 30.6459 13.8297 30.6459 12.9108ZM15.5756 21.8243V25.5459C15.5756 26.0054 15.2081 26.4189 14.7027 26.4189H14.2432C13.7837 26.4189 13.3702 26.0054 13.3702 25.5459V21.8243H13.2783C12.1297 21.8243 11.1648 20.8595 11.1648 19.7108V14.1973C11.1648 13.0486 12.1297 12.0838 13.2783 12.0838H19.8026L24.7648 6.06487L25.1324 5.83513L25.1783 5.78919H25.2243V5.74324H25.2702L25.3161 5.6973H25.3621V5.65135H25.408H25.454V5.60541H25.4999H25.5459V5.55946H25.5918H25.6378V5.51351H25.6837H25.7297H25.7756V5.46757H25.8215H25.8675H25.9134H25.9594V5.42162H26.0053H26.0513H26.0972H26.1432H26.1891H26.2351H26.281L26.327 5.37568H26.3729H26.4188V5.42162H26.4648H26.5107H26.5567H26.6026H26.6486H26.6945H26.7405L26.7864 5.46757H26.8324H26.8783H26.9242V5.51351H26.9702H27.0161H27.0621L27.108 5.55946H27.154L27.1999 5.60541H27.2459L27.2918 5.65135H27.3378L27.3837 5.6973H27.4297V5.74324H27.4756L27.5215 5.78919H27.5675V5.83513H27.6134C28.1188 6.2027 28.4405 6.84595 28.4405 7.53514V14.1973V17V17.0459V19.8486V26.4649C28.4405 27.1541 28.1188 27.7973 27.6134 28.1649H27.5675V28.2108H27.5215V28.2568H27.4756L27.4297 28.3027H27.3837L27.3378 28.3486H27.2918V28.3946H27.2459H27.1999V28.4405H27.154H27.108L27.0621 28.4865H27.0161H26.9702L26.9242 28.5324H26.8783H26.8324H26.7864V28.5784H26.7405H26.6945H26.6486H26.6026H26.5567H26.5107L26.4648 28.6243H26.4188H26.3729H26.327H26.281H26.2351V28.5784H26.1891H26.1432H26.0972H26.0513H26.0053H25.9594V28.5324H25.9134H25.8675H25.8215H25.7756V28.4865H25.7297H25.6837H25.6378V28.4405H25.5918H25.5459V28.3946H25.4999H25.454L25.408 28.3486H25.3621V28.3027H25.3161H25.2702V28.2568H25.2243L25.1783 28.2108H25.1324V28.1649L24.7648 27.9811L19.8026 21.8243H15.5756Z" fill="#1C2025"/>
</svg>
