<svg width="186" height="143" viewBox="0 0 186 143" fill="none" xmlns="http://www.w3.org/2000/svg">
<path fill-rule="evenodd" clip-rule="evenodd" d="M0.446289 71.5C0.446289 46.9581 7.59552 29.373 17.8363 18.7446C29.4297 6.18378 50.1045 0 79.281 0H106.719C135.895 0 156.57 6.18378 168.357 18.7446C178.404 29.373 185.553 46.9581 185.553 71.5C185.553 96.0419 178.404 113.627 168.357 124.255C156.57 136.816 135.895 143 106.719 143H79.281C50.1045 143 29.4297 136.816 17.8363 124.255C7.59552 113.627 0.446289 96.0419 0.446289 71.5ZM65.9487 101.839C70.9725 101.839 75.2234 106.091 75.2234 111.115C75.2234 116.139 70.9725 120.391 65.9487 120.391C60.9249 120.391 56.674 116.139 56.674 111.115C56.674 106.091 60.9249 101.839 65.9487 101.839H60.3452H58.2198H56.4808H56.2876C55.7079 101.839 54.935 101.839 54.3553 101.646H54.1621L53.9689 101.453H53.7757C53.7757 101.453 53.5825 101.453 53.5825 101.259H53.3892H53.196L53.0028 101.066H52.8096H52.6163L52.4231 100.873H52.2299V100.68H52.0367L51.8435 100.486H51.6502L51.457 100.293H51.2638V100.1H51.0706L50.8773 99.9068L50.6841 99.7135H50.4909V99.5203H50.2977L50.1045 99.327V99.1338H49.9112V98.9405C49.718 98.9405 49.718 98.7473 49.718 98.7473L49.5248 98.5541L49.3316 98.3608V98.1676H49.1383C49.1383 97.9743 48.9451 97.7811 48.7519 97.5878V97.3946C47.979 96.0419 47.3993 94.4959 47.3993 92.95V87.1527V75.1716V40.9676V31.8851H41.7959C39.8637 31.8851 38.3179 30.3392 38.3179 28.2135V26.2811C38.3179 24.3486 39.8637 22.6095 41.7959 22.6095H51.0706H53.196L53.3892 22.8027H53.5825H53.7757H53.9689H54.1621H54.3553V22.9959H54.5486H54.7418V23.1892H54.935H55.1282V23.3824H55.3215V23.5757H55.5147V23.7689H55.7079V23.9622H55.9011V24.1554H56.0943V24.3486H56.2876V24.5419V24.7351H56.4808V24.9284V25.1216V25.3149H56.674V25.5081V25.7014V25.8946V26.0878V26.2811V28.2135V31.8851C80.2472 31.6919 106.139 31.8851 129.519 31.8851H129.712C134.543 32.0784 138.6 36.1365 138.6 40.9676V74.3987C138.6 79.2297 134.543 83.2878 129.712 83.4811H129.519H64.0165H60.3452C58.413 83.4811 56.674 85.027 56.674 86.9595V87.1527V89.0851C56.674 91.0176 58.413 92.5635 60.3452 92.5635H64.0165H134.929C136.861 92.5635 138.6 94.3027 138.6 96.2351V98.1676C138.6 100.293 136.861 101.839 134.929 101.839H120.051C125.268 101.839 129.326 106.091 129.326 111.115C129.326 116.139 125.268 120.391 120.051 120.391C115.027 120.391 110.776 116.139 110.776 111.115C110.776 106.091 115.027 101.839 120.051 101.839H65.9487Z" fill="black"/>
</svg>
