<svg width="45" height="34" viewBox="0 0 45 34" fill="none" xmlns="http://www.w3.org/2000/svg">
<path fill-rule="evenodd" clip-rule="evenodd" d="M0.0322266 17C0.0322266 11.1649 1.73222 6.98378 4.16735 4.45676C6.9241 1.47027 11.8403 0 18.7781 0H25.3024C32.2402 0 37.1564 1.47027 39.9591 4.45676C42.3483 6.98378 44.0483 11.1649 44.0483 17C44.0483 22.8351 42.3483 27.0162 39.9591 29.5432C37.1564 32.5297 32.2402 34 25.3024 34H18.7781C11.8403 34 6.9241 32.5297 4.16735 29.5432C1.73222 27.0162 0.0322266 22.8351 0.0322266 17ZM15.6079 24.2135C16.8025 24.2135 17.8133 25.2243 17.8133 26.4189C17.8133 27.6135 16.8025 28.6243 15.6079 28.6243C14.4133 28.6243 13.4025 27.6135 13.4025 26.4189C13.4025 25.2243 14.4133 24.2135 15.6079 24.2135H14.2754H13.77H13.3565H13.3106C13.1727 24.2135 12.9889 24.2135 12.8511 24.1676H12.8052L12.7592 24.1216H12.7133C12.7133 24.1216 12.6673 24.1216 12.6673 24.0757H12.6214H12.5754L12.5295 24.0297H12.4835H12.4376L12.3917 23.9838H12.3457V23.9378H12.2998L12.2538 23.8919H12.2079L12.1619 23.8459H12.116V23.8H12.07L12.0241 23.7541L11.9781 23.7081H11.9322V23.6622H11.8862L11.8403 23.6162V23.5703H11.7944V23.5243C11.7484 23.5243 11.7484 23.4784 11.7484 23.4784L11.7025 23.4324L11.6565 23.3865V23.3405H11.6106C11.6106 23.2946 11.5646 23.2486 11.5187 23.2027V23.1568C11.3349 22.8351 11.1971 22.4676 11.1971 22.1V20.7216V17.873V9.74054V7.58108H9.86463C9.40517 7.58108 9.03761 7.21351 9.03761 6.70811V6.24865C9.03761 5.78919 9.40517 5.37568 9.86463 5.37568H12.07H12.5754L12.6214 5.42162H12.6673H12.7133H12.7592H12.8052H12.8511V5.46757H12.8971H12.943V5.51351H12.9889H13.0349V5.55946H13.0808V5.60541H13.1268V5.65135H13.1727V5.6973H13.2187V5.74324H13.2646V5.78919H13.3106V5.83513V5.88108H13.3565V5.92703V5.97297V6.01892H13.4025V6.06487V6.11081V6.15676V6.2027V6.24865V6.70811V7.58108C19.0078 7.53514 25.1646 7.58108 30.724 7.58108H30.77C31.9186 7.62703 32.8835 8.59189 32.8835 9.74054V17.6892C32.8835 18.8378 31.9186 19.8027 30.77 19.8486H30.724H15.1484H14.2754C13.816 19.8486 13.4025 20.2162 13.4025 20.6757V20.7216V21.1811C13.4025 21.6405 13.816 22.0081 14.2754 22.0081H15.1484H32.0105C32.47 22.0081 32.8835 22.4216 32.8835 22.8811V23.3405C32.8835 23.8459 32.47 24.2135 32.0105 24.2135H28.4727C29.7132 24.2135 30.6781 25.2243 30.6781 26.4189C30.6781 27.6135 29.7132 28.6243 28.4727 28.6243C27.2781 28.6243 26.2673 27.6135 26.2673 26.4189C26.2673 25.2243 27.2781 24.2135 28.4727 24.2135H15.6079Z" fill="white"/>
</svg>
