<svg width="186" height="143" viewBox="0 0 186 143" fill="none" xmlns="http://www.w3.org/2000/svg">
<path fill-rule="evenodd" clip-rule="evenodd" d="M0.447266 71.5C0.447266 46.9581 7.5965 29.373 17.8373 18.7446C29.4306 6.18378 50.1054 0 79.282 0H106.72C135.896 0 156.571 6.18378 168.358 18.7446C178.405 29.373 185.554 46.9581 185.554 71.5C185.554 96.0419 178.405 113.627 168.358 124.255C156.571 136.816 135.896 143 106.72 143H79.282C50.1054 143 29.4306 136.816 17.8373 124.255C7.5965 113.627 0.447266 96.0419 0.447266 71.5ZM65.9497 101.839C70.9735 101.839 75.2243 106.091 75.2243 111.115C75.2243 116.139 70.9735 120.391 65.9497 120.391C60.9259 120.391 56.675 116.139 56.675 111.115C56.675 106.091 60.9259 101.839 65.9497 101.839H60.3462H58.2208H56.4818H56.2885C55.7089 101.839 54.936 101.839 54.3563 101.646H54.1631L53.9699 101.453H53.7767C53.7767 101.453 53.5834 101.453 53.5834 101.259H53.3902H53.197L53.0038 101.066H52.8105H52.6173L52.4241 100.873H52.2309V100.68H52.0377L51.8444 100.486H51.6512L51.458 100.293H51.2648V100.1H51.0715L50.8783 99.9068L50.6851 99.7135H50.4919V99.5203H50.2987L50.1054 99.327V99.1338H49.9122V98.9405C49.719 98.9405 49.719 98.7473 49.719 98.7473L49.5258 98.5541L49.3325 98.3608V98.1676H49.1393C49.1393 97.9743 48.9461 97.7811 48.7529 97.5878V97.3946C47.98 96.0419 47.4003 94.4959 47.4003 92.95V87.1527V75.1716V40.9676V31.8851H41.7969C39.8646 31.8851 38.3189 30.3392 38.3189 28.2135V26.2811C38.3189 24.3486 39.8646 22.6095 41.7969 22.6095H51.0715H53.197L53.3902 22.8027H53.5834H53.7767H53.9699H54.1631H54.3563V22.9959H54.5495H54.7428V23.1892H54.936H55.1292V23.3824H55.3224V23.5757H55.5157V23.7689H55.7089V23.9622H55.9021V24.1554H56.0953V24.3486H56.2885V24.5419V24.7351H56.4818V24.9284V25.1216V25.3149H56.675V25.5081V25.7014V25.8946V26.0878V26.2811V28.2135V31.8851C80.2481 31.6919 106.14 31.8851 129.52 31.8851H129.713C134.544 32.0784 138.601 36.1365 138.601 40.9676V74.3987C138.601 79.2297 134.544 83.2878 129.713 83.4811H129.52H64.0174H60.3462C58.414 83.4811 56.675 85.027 56.675 86.9595V87.1527V89.0851C56.675 91.0176 58.414 92.5635 60.3462 92.5635H64.0174H134.93C136.862 92.5635 138.601 94.3027 138.601 96.2351V98.1676C138.601 100.293 136.862 101.839 134.93 101.839H120.052C125.269 101.839 129.327 106.091 129.327 111.115C129.327 116.139 125.269 120.391 120.052 120.391C115.028 120.391 110.777 116.139 110.777 111.115C110.777 106.091 115.028 101.839 120.052 101.839H65.9497Z" fill="white"/>
</svg>
