<svg width="45" height="34" viewBox="0 0 45 34" fill="none" xmlns="http://www.w3.org/2000/svg">
<path fill-rule="evenodd" clip-rule="evenodd" d="M0.0478516 17C0.0478516 11.1649 1.74785 6.98378 4.18297 4.45676C6.93972 1.47027 11.8559 0 18.7937 0H25.3181C32.2559 0 37.1721 1.47027 39.9748 4.45676C42.3639 6.98378 44.0639 11.1649 44.0639 17C44.0639 22.8351 42.3639 27.0162 39.9748 29.5432C37.1721 32.5297 32.2559 34 25.3181 34H18.7937C11.8559 34 6.93972 32.5297 4.18297 29.5432C1.74785 27.0162 0.0478516 22.8351 0.0478516 17ZM13.3721 7.58108H17.1397V5.37568H27.018V7.58108H30.7397H30.7856C31.9342 7.62703 32.8991 8.59189 32.8991 9.74054V12.4054H17.9667C17.5073 12.4054 17.1397 12.773 17.1397 13.2784V13.7378C17.1397 14.1973 17.5073 14.6108 17.9667 14.6108H28.8559H30.7397C31.9342 14.6108 32.8991 15.5757 32.8991 16.7243V18.7919V24.2595C32.8991 25.4541 31.9342 26.373 30.7856 26.4189H30.7397H27.018V28.6243H17.1397V26.4189H13.3721H13.3262C12.1775 26.373 11.2127 25.4541 11.2127 24.2595V21.5946H26.1451C26.6045 21.5946 27.018 21.227 27.018 20.7216V20.2622C27.018 19.8027 26.6045 19.3892 26.1451 19.3892H15.2559H13.3721C12.1775 19.3892 11.2127 18.4243 11.2127 17.2757V15.2081V9.74054C11.2127 8.59189 12.1775 7.62703 13.3262 7.58108H13.3721Z" fill="white"/>
</svg>
