<svg width="45" height="34" viewBox="0 0 45 34" fill="none" xmlns="http://www.w3.org/2000/svg">
<path fill-rule="evenodd" clip-rule="evenodd" d="M0.0483398 17C0.0483398 11.1649 1.74834 6.98378 4.18346 4.45676C6.94021 1.47027 11.8564 0 18.7942 0H25.3185C32.2564 0 37.1726 1.47027 39.9753 4.45676C42.3644 6.98378 44.0644 11.1649 44.0644 17C44.0644 22.8351 42.3644 27.0162 39.9753 29.5432C37.1726 32.5297 32.2564 34 25.3185 34H18.7942C11.8564 34 6.94021 32.5297 4.18346 29.5432C1.74834 27.0162 0.0483398 22.8351 0.0483398 17ZM13.3726 7.58108H17.1402V5.37568H27.0185V7.58108H30.7401H30.7861C31.9347 7.62703 32.8996 8.59189 32.8996 9.74054V12.4054H17.9672C17.5077 12.4054 17.1402 12.773 17.1402 13.2784V13.7378C17.1402 14.1973 17.5077 14.6108 17.9672 14.6108H28.8564H30.7401C31.9347 14.6108 32.8996 15.5757 32.8996 16.7243V18.7919V24.2595C32.8996 25.4541 31.9347 26.373 30.7861 26.4189H30.7401H27.0185V28.6243H17.1402V26.4189H13.3726H13.3267C12.178 26.373 11.2132 25.4541 11.2132 24.2595V21.5946H26.1456C26.605 21.5946 27.0185 21.227 27.0185 20.7216V20.2622C27.0185 19.8027 26.605 19.3892 26.1456 19.3892H15.2564H13.3726C12.178 19.3892 11.2132 18.4243 11.2132 17.2757V15.2081V9.74054C11.2132 8.59189 12.178 7.62703 13.3267 7.58108H13.3726Z" fill="#1C2025"/>
</svg>
