<svg width="186" height="143" viewBox="0 0 186 143" fill="none" xmlns="http://www.w3.org/2000/svg">
<path fill-rule="evenodd" clip-rule="evenodd" d="M0.446289 71.5C0.446289 46.9581 7.59552 29.373 17.8363 18.7446C29.4297 6.18378 50.1045 0 79.281 0H106.719C135.895 0 156.57 6.18378 168.357 18.7446C178.404 29.373 185.553 46.9581 185.553 71.5C185.553 96.0419 178.404 113.627 168.357 124.255C156.57 136.816 135.895 143 106.719 143H79.281C50.1045 143 29.4297 136.816 17.8363 124.255C7.59552 113.627 0.446289 96.0419 0.446289 71.5ZM56.4808 31.8851H72.325V22.6095H113.868V31.8851H129.519H129.712C134.543 32.0784 138.6 36.1365 138.6 40.9676V52.1757H75.803C73.8708 52.1757 72.325 53.7216 72.325 55.8473V57.7797C72.325 59.7122 73.8708 61.4514 75.803 61.4514H121.597H129.519C134.543 61.4514 138.6 65.5095 138.6 70.3405V79.0365V102.032C138.6 107.057 134.543 110.922 129.712 111.115H129.519H113.868V120.391H72.325V111.115H56.4808H56.2876C51.457 110.922 47.3993 107.057 47.3993 102.032V90.8243H110.197C112.129 90.8243 113.868 89.2784 113.868 87.1527V85.2203C113.868 83.2878 112.129 81.5487 110.197 81.5487H64.4029H56.4808C51.457 81.5487 47.3993 77.4905 47.3993 72.6595V63.9635V40.9676C47.3993 36.1365 51.457 32.0784 56.2876 31.8851H56.4808Z" fill="black"/>
</svg>
