<svg width="186" height="143" viewBox="0 0 186 143" fill="none" xmlns="http://www.w3.org/2000/svg">
<path fill-rule="evenodd" clip-rule="evenodd" d="M0.447266 71.5C0.447266 46.9581 7.5965 29.373 17.8373 18.7446C29.4306 6.18378 50.1054 0 79.282 0H106.72C135.896 0 156.571 6.18378 168.358 18.7446C178.405 29.373 185.554 46.9581 185.554 71.5C185.554 96.0419 178.405 113.627 168.358 124.255C156.571 136.816 135.896 143 106.72 143H79.282C50.1054 143 29.4306 136.816 17.8373 124.255C7.5965 113.627 0.447266 96.0419 0.447266 71.5ZM56.4818 31.8851H72.326V22.6095H113.869V31.8851H129.52H129.713C134.544 32.0784 138.601 36.1365 138.601 40.9676V52.1757H75.804C73.8718 52.1757 72.326 53.7216 72.326 55.8473V57.7797C72.326 59.7122 73.8718 61.4514 75.804 61.4514H121.598H129.52C134.544 61.4514 138.601 65.5095 138.601 70.3405V79.0365V102.032C138.601 107.057 134.544 110.922 129.713 111.115H129.52H113.869V120.391H72.326V111.115H56.4818H56.2885C51.458 110.922 47.4003 107.057 47.4003 102.032V90.8243H110.198C112.13 90.8243 113.869 89.2784 113.869 87.1527V85.2203C113.869 83.2878 112.13 81.5487 110.198 81.5487H64.4039H56.4818C51.458 81.5487 47.4003 77.4905 47.4003 72.6595V63.9635V40.9676C47.4003 36.1365 51.458 32.0784 56.2885 31.8851H56.4818Z" fill="white"/>
</svg>
