<svg width="33" height="32" viewBox="0 0 33 32" fill="none" xmlns="http://www.w3.org/2000/svg">
<path d="M16.0514 2.66663C8.69145 2.66663 2.73145 8.63996 2.73145 16C2.73145 23.36 8.69145 29.3333 16.0514 29.3333C23.4248 29.3333 29.3981 23.36 29.3981 16C29.3981 8.63996 23.4248 2.66663 16.0514 2.66663ZM25.2914 10.6666H21.3581C20.9314 8.99996 20.3181 7.39996 19.5181 5.91996C21.9714 6.75996 24.0114 8.46663 25.2914 10.6666ZM16.0648 5.38663C17.1714 6.98663 18.0381 8.75996 18.6114 10.6666H13.5181C14.0914 8.75996 14.9581 6.98663 16.0648 5.38663ZM5.74478 18.6666C5.53145 17.8133 5.39811 16.92 5.39811 16C5.39811 15.08 5.53145 14.1866 5.74478 13.3333H10.2514C10.1448 14.2133 10.0648 15.0933 10.0648 16C10.0648 16.9066 10.1448 17.7866 10.2514 18.6666H5.74478ZM6.83811 21.3333H10.7714C11.1981 23 11.8114 24.6 12.6114 26.08C10.1581 25.24 8.11811 23.5466 6.83811 21.3333ZM10.7714 10.6666H6.83811C8.11811 8.45329 10.1581 6.75996 12.6114 5.91996C11.8114 7.39996 11.1981 8.99996 10.7714 10.6666ZM16.0648 26.6133C14.9581 25.0133 14.0914 23.24 13.5181 21.3333H18.6114C18.0381 23.24 17.1714 25.0133 16.0648 26.6133ZM19.1848 18.6666H12.9448C12.8248 17.7866 12.7314 16.9066 12.7314 16C12.7314 15.0933 12.8248 14.2 12.9448 13.3333H19.1848C19.3048 14.2 19.3981 15.0933 19.3981 16C19.3981 16.9066 19.3048 17.7866 19.1848 18.6666ZM19.5181 26.08C20.3181 24.6 20.9314 23 21.3581 21.3333H25.2914C24.0114 23.5333 21.9714 25.24 19.5181 26.08ZM21.8781 18.6666C21.9848 17.7866 22.0648 16.9066 22.0648 16C22.0648 15.0933 21.9848 14.2133 21.8781 13.3333H26.3848C26.5981 14.1866 26.7314 15.08 26.7314 16C26.7314 16.92 26.5981 17.8133 26.3848 18.6666H21.8781Z" fill="white"/>
</svg>
