<svg width="33" height="32" viewBox="0 0 33 32" fill="none" xmlns="http://www.w3.org/2000/svg">
<path d="M16.051 2.66663C8.69096 2.66663 2.73096 8.63996 2.73096 16C2.73096 23.36 8.69096 29.3333 16.051 29.3333C23.4243 29.3333 29.3976 23.36 29.3976 16C29.3976 8.63996 23.4243 2.66663 16.051 2.66663ZM25.291 10.6666H21.3576C20.931 8.99996 20.3176 7.39996 19.5176 5.91996C21.971 6.75996 24.011 8.46663 25.291 10.6666ZM16.0643 5.38663C17.171 6.98663 18.0376 8.75996 18.611 10.6666H13.5176C14.091 8.75996 14.9576 6.98663 16.0643 5.38663ZM5.74429 18.6666C5.53096 17.8133 5.39762 16.92 5.39762 16C5.39762 15.08 5.53096 14.1866 5.74429 13.3333H10.251C10.1443 14.2133 10.0643 15.0933 10.0643 16C10.0643 16.9066 10.1443 17.7866 10.251 18.6666H5.74429ZM6.83762 21.3333H10.771C11.1976 23 11.811 24.6 12.611 26.08C10.1576 25.24 8.11762 23.5466 6.83762 21.3333ZM10.771 10.6666H6.83762C8.11762 8.45329 10.1576 6.75996 12.611 5.91996C11.811 7.39996 11.1976 8.99996 10.771 10.6666ZM16.0643 26.6133C14.9576 25.0133 14.091 23.24 13.5176 21.3333H18.611C18.0376 23.24 17.171 25.0133 16.0643 26.6133ZM19.1843 18.6666H12.9443C12.8243 17.7866 12.731 16.9066 12.731 16C12.731 15.0933 12.8243 14.2 12.9443 13.3333H19.1843C19.3043 14.2 19.3976 15.0933 19.3976 16C19.3976 16.9066 19.3043 17.7866 19.1843 18.6666ZM19.5176 26.08C20.3176 24.6 20.931 23 21.3576 21.3333H25.291C24.011 23.5333 21.971 25.24 19.5176 26.08ZM21.8776 18.6666C21.9843 17.7866 22.0643 16.9066 22.0643 16C22.0643 15.0933 21.9843 14.2133 21.8776 13.3333H26.3843C26.5976 14.1866 26.731 15.08 26.731 16C26.731 16.92 26.5976 17.8133 26.3843 18.6666H21.8776Z" fill="black"/>
</svg>
