<svg width="32" height="32" viewBox="0 0 32 32" fill="none" xmlns="http://www.w3.org/2000/svg">
<path d="M12 29.3337H24C25.1067 29.3337 26.0534 28.667 26.4534 27.707L30.48 18.307C30.6 18.0003 30.6667 17.6803 30.6667 17.3337V14.667C30.6667 13.2003 29.4667 12.0003 28 12.0003H19.5867L20.8534 5.90699L20.8934 5.48033C20.8934 4.93366 20.6667 4.42699 20.3067 4.06699L18.8934 2.66699L10.1067 11.4537C9.62671 11.9337 9.33337 12.6003 9.33337 13.3337V26.667C9.33337 28.1337 10.5334 29.3337 12 29.3337ZM12 13.3337L17.7867 7.54699L16 14.667H28V17.3337L24 26.667H12V13.3337ZM1.33337 13.3337H6.66671V29.3337H1.33337V13.3337Z" fill="black"/>
</svg>
