<svg width="32" height="32" viewBox="0 0 32 32" fill="none" xmlns="http://www.w3.org/2000/svg">
<path d="M12.0007 29.3337H24.0007C25.1073 29.3337 26.054 28.667 26.454 27.707L30.4807 18.307C30.6007 18.0003 30.6673 17.6803 30.6673 17.3337V14.667C30.6673 13.2003 29.4673 12.0003 28.0007 12.0003H19.5873L20.854 5.90699L20.894 5.48033C20.894 4.93366 20.6673 4.42699 20.3073 4.06699L18.894 2.66699L10.1073 11.4537C9.62732 11.9337 9.33398 12.6003 9.33398 13.3337V26.667C9.33398 28.1337 10.534 29.3337 12.0007 29.3337ZM12.0007 13.3337L17.7873 7.54699L16.0007 14.667H28.0007V17.3337L24.0007 26.667H12.0007V13.3337ZM1.33398 13.3337H6.66732V29.3337H1.33398V13.3337Z" fill="white"/>
</svg>
