<svg width="61" height="26" viewBox="0 0 61 26" fill="none" xmlns="http://www.w3.org/2000/svg">
<path d="M0 25.821V9.83936H8.1656C10.4472 9.83936 12.0683 10.3164 12.9689 11.2705C13.8695 12.2247 14.3498 13.8348 14.3498 16.2201V19.4403C14.3498 21.8256 13.8695 23.4357 12.9689 24.3898C12.0683 25.3439 10.4472 25.821 8.1656 25.821H0ZM4.32297 22.243H7.50515C8.52585 22.243 9.12626 22.0641 9.48651 21.7063C9.78672 21.4082 9.9068 20.5137 9.9068 19.1421V16.5182C9.9068 15.1467 9.78672 14.3118 9.48651 13.954C9.12626 13.5962 8.52585 13.4173 7.50515 13.4173H4.32297V22.243ZM17.1117 25.821V9.83936H29.18V13.4173H21.4347V16.1605H28.9399V19.2614H21.4347V22.243H29.3601V25.821H17.1117Z" fill="black"/>
<path d="M45.6914 20.5136C45.6914 18.6054 46.2318 17.2338 47.0123 16.4586C47.9129 15.5045 49.534 14.9678 51.8156 14.9678H53.917C56.1986 14.9678 57.7597 15.5045 58.7203 16.4586C59.5009 17.2338 60.0412 18.6054 60.0412 20.5136C60.0412 22.4219 59.5009 23.7338 58.7203 24.5687C57.7597 25.5228 56.1986 25.9999 53.917 25.9999H51.8156C49.534 25.9999 47.9129 25.5228 47.0123 24.5687C46.2318 23.7338 45.6914 22.4219 45.6914 20.5136ZM52.4761 18.7247C51.4554 18.7247 50.8549 18.9036 50.4947 19.2613C50.3146 19.4999 50.1345 19.9173 50.1345 20.5136C50.1345 21.11 50.3146 21.5274 50.4947 21.7063C50.7949 22.0641 51.4554 22.243 52.4761 22.243H53.2566C54.2173 22.243 54.8777 22.0641 55.1779 21.7063C55.4181 21.5274 55.5982 21.11 55.5982 20.5136C55.5982 19.9173 55.358 19.4999 55.1779 19.2613C54.8777 18.9036 54.2173 18.7247 53.2566 18.7247H52.4761Z" fill="black"/>
<path d="M35.4241 25.821V13.4173H31.3413V9.83936H43.95V13.4173H39.8071V25.821H35.4241Z" fill="black"/>
<path d="M50.6746 13.4173H46.5918V9.83936H59.2004V13.4173H55.0576H50.6746Z" fill="black"/>
<path d="M50.6746 8.46805H46.5918V4.94971H59.2004V8.46805H55.0576H50.6746Z" fill="black"/>
<path d="M50.6746 3.57798H46.5918V0H59.2004V3.57798H55.0576H50.6746Z" fill="black"/>
</svg>
