<svg width="186" height="144" viewBox="0 0 186 144" fill="none" xmlns="http://www.w3.org/2000/svg">
<path fill-rule="evenodd" clip-rule="evenodd" d="M0.445312 72.4517C0.445312 47.9098 7.59455 30.3246 17.8354 19.6963C29.4287 7.13544 50.1035 0.95166 79.2802 0.95166H106.718C135.894 0.95166 156.569 7.13544 168.356 19.6963C178.403 30.3246 185.553 47.9098 185.553 72.4517C185.553 96.9936 178.403 114.579 168.356 125.207C156.569 137.768 135.894 143.952 106.718 143.952H79.2802C50.1035 143.952 29.4287 137.768 17.8354 125.207C7.59455 114.579 0.445312 96.9936 0.445312 72.4517ZM110.775 23.5611C115.606 23.7544 120.05 27.8125 120.05 32.6436V102.598H125.847C127.779 102.598 129.325 101.052 129.325 99.1192V97.1868V94.4814V88.2976V55.253C129.325 53.3206 130.871 51.7746 132.996 51.7746H134.928C136.861 51.7746 138.6 53.3206 138.6 55.253V88.2976V94.4814V102.984C138.6 107.235 135.701 111.1 131.643 112.067H120.05V112.26C120.05 117.091 116.186 121.149 111.355 121.342H111.162C86.6226 121.342 99.3753 121.342 75.0293 121.342H74.6428C69.8122 121.149 65.9478 117.091 65.9478 112.26V42.3057H60.1511C58.2189 42.3057 56.6731 43.8517 56.6731 45.7841V47.7165V50.4219V56.6057V89.6503C56.6731 91.5827 55.1273 93.1287 53.1951 93.1287H51.0696C49.1374 93.1287 47.3984 91.5827 47.3984 89.6503V56.6057V50.4219V41.9192C47.3984 37.6679 50.2968 33.803 54.3544 32.8368H65.9478V32.6436C65.9478 27.8125 69.8122 23.7544 74.6428 23.5611H110.775ZM129.325 38.6341V36.5084C129.325 34.576 130.871 32.8368 132.996 32.8368H134.928C136.861 32.8368 138.6 34.576 138.6 36.5084V38.6341C138.6 40.7598 136.861 42.3057 134.928 42.3057H132.996C130.871 42.3057 129.325 40.7598 129.325 38.6341ZM47.3984 108.395V106.269C47.3984 104.337 49.1374 102.598 51.0696 102.598H53.1951C55.1273 102.598 56.6731 104.337 56.6731 106.269V108.395C56.6731 110.327 55.1273 112.067 53.1951 112.067H51.0696C49.1374 112.067 47.3984 110.327 47.3984 108.395ZM101.887 104.917C101.694 105.303 101.694 105.689 101.694 106.269V108.395C101.694 108.975 101.694 109.361 101.887 109.748C101.308 111.1 100.148 111.873 98.6024 111.873H94.9312C94.738 112.067 94.3515 112.067 93.9651 112.067H92.0328C91.6464 112.067 91.26 112.067 91.0667 111.873H87.3955C85.4633 111.873 83.7243 110.327 83.7243 108.202V106.269C83.7243 104.337 85.4633 102.598 87.3955 102.598H91.4532C91.6464 102.598 91.8396 102.598 92.0328 102.598H93.9651C94.1583 102.598 94.3515 102.598 94.5447 102.598H98.6024C100.148 102.598 101.501 103.564 101.887 104.917ZM84.1107 39.9868C84.3039 39.6003 84.3039 39.2138 84.3039 38.6341V36.5084C84.3039 35.9287 84.3039 35.5422 84.1107 35.1557C84.6904 33.803 85.8497 32.8368 87.3955 32.8368H89.3277H96.6702H98.6024C100.535 32.8368 102.274 34.576 102.274 36.5084V38.6341C102.274 40.7598 100.535 42.3057 98.6024 42.3057H96.6702H89.3277H87.3955C85.8497 42.3057 84.6904 41.3395 84.1107 39.9868ZM84.1107 51.7746C108.65 51.3881 77.3479 51.7746 101.887 51.7746H102.08H107.297H110.775V55.253V60.6638V84.2395V89.6503V93.1287H107.297H102.08H101.887C77.3479 93.1287 108.65 93.1287 84.1107 93.1287H83.9175H78.7005H75.2225V89.6503V84.2395V60.6638V55.253V51.7746H78.7005H83.9175H84.1107Z" fill="white"/>
</svg>
