<svg width="45" height="34" viewBox="0 0 45 34" fill="none" xmlns="http://www.w3.org/2000/svg">
<path fill-rule="evenodd" clip-rule="evenodd" d="M0.0161133 17C0.0161133 11.1649 1.71611 6.98378 4.15124 4.45676C6.90799 1.47027 11.8242 0 18.762 0H25.2863C32.2242 0 37.1404 1.47027 39.9431 4.45676C42.3323 6.98378 44.0323 11.1649 44.0323 17C44.0323 22.8351 42.3323 27.0162 39.9431 29.5432C37.1404 32.5297 32.2242 34 25.2863 34H18.762C11.8242 34 6.90799 32.5297 4.15124 29.5432C1.71611 27.0162 0.0161133 22.8351 0.0161133 17ZM26.2512 5.37568C27.3999 5.42162 28.4566 6.38649 28.4566 7.53514V24.1676H29.835C30.2944 24.1676 30.662 23.8 30.662 23.3405V22.8811V22.2378V20.7676V12.9108C30.662 12.4514 31.0296 12.0838 31.535 12.0838H31.9944C32.4539 12.0838 32.8674 12.4514 32.8674 12.9108V20.7676V22.2378V24.2595C32.8674 25.2703 32.1782 26.1892 31.2134 26.4189H28.4566V26.4649C28.4566 27.6135 27.5377 28.5784 26.389 28.6243H26.3431C20.508 28.6243 23.5404 28.6243 17.7512 28.6243H17.6593C16.5107 28.5784 15.5918 27.6135 15.5918 26.4649V9.83243H14.2134C13.7539 9.83243 13.3864 10.2 13.3864 10.6595V11.1189V11.7622V13.2324V21.0892C13.3864 21.5486 13.0188 21.9162 12.5593 21.9162H12.0539C11.5945 21.9162 11.181 21.5486 11.181 21.0892V13.2324V11.7622V9.74054C11.181 8.72973 11.8701 7.81081 12.835 7.58108H15.5918V7.53514C15.5918 6.38649 16.5107 5.42162 17.6593 5.37568H26.2512ZM30.662 8.95946V8.45405C30.662 7.99459 31.0296 7.58108 31.535 7.58108H31.9944C32.4539 7.58108 32.8674 7.99459 32.8674 8.45405V8.95946C32.8674 9.46486 32.4539 9.83243 31.9944 9.83243H31.535C31.0296 9.83243 30.662 9.46486 30.662 8.95946ZM11.181 25.5459V25.0405C11.181 24.5811 11.5945 24.1676 12.0539 24.1676H12.5593C13.0188 24.1676 13.3864 24.5811 13.3864 25.0405V25.5459C13.3864 26.0054 13.0188 26.4189 12.5593 26.4189H12.0539C11.5945 26.4189 11.181 26.0054 11.181 25.5459ZM24.1377 24.7189C24.0918 24.8108 24.0918 24.9027 24.0918 25.0405V25.5459C24.0918 25.6838 24.0918 25.7757 24.1377 25.8676C23.9999 26.1892 23.7242 26.373 23.3566 26.373H22.4836C22.4377 26.4189 22.3458 26.4189 22.2539 26.4189H21.7945C21.7026 26.4189 21.6107 26.4189 21.5647 26.373H20.6918C20.2323 26.373 19.8188 26.0054 19.8188 25.5V25.0405C19.8188 24.5811 20.2323 24.1676 20.6918 24.1676H21.6566C21.7026 24.1676 21.7485 24.1676 21.7945 24.1676H22.2539C22.2999 24.1676 22.3458 24.1676 22.3918 24.1676H23.3566C23.7242 24.1676 24.0458 24.3973 24.1377 24.7189ZM19.9107 9.28108C19.9566 9.18919 19.9566 9.0973 19.9566 8.95946V8.45405C19.9566 8.31622 19.9566 8.22432 19.9107 8.13243C20.0485 7.81081 20.3242 7.58108 20.6918 7.58108H21.1512H22.8972H23.3566C23.8161 7.58108 24.2296 7.99459 24.2296 8.45405V8.95946C24.2296 9.46486 23.8161 9.83243 23.3566 9.83243H22.8972H21.1512H20.6918C20.3242 9.83243 20.0485 9.6027 19.9107 9.28108ZM19.9107 12.0838C25.7458 11.9919 18.3026 12.0838 24.1377 12.0838H24.1836H25.4242H26.2512V12.9108V14.1973V19.8027V21.0892V21.9162H25.4242H24.1836H24.1377C18.3026 21.9162 25.7458 21.9162 19.9107 21.9162H19.8647H18.6242H17.7972V21.0892V19.8027V14.1973V12.9108V12.0838H18.6242H19.8647H19.9107Z" fill="#1C2025"/>
</svg>
