<svg width="45" height="34" viewBox="0 0 45 34" fill="none" xmlns="http://www.w3.org/2000/svg">
<path fill-rule="evenodd" clip-rule="evenodd" d="M0.015625 17C0.015625 11.1649 1.71562 6.98378 4.15075 4.45676C6.90751 1.47027 11.8237 0 18.7615 0H25.2859C32.2237 0 37.1399 1.47027 39.9426 4.45676C42.3318 6.98378 44.0318 11.1649 44.0318 17C44.0318 22.8351 42.3318 27.0162 39.9426 29.5432C37.1399 32.5297 32.2237 34 25.2859 34H18.7615C11.8237 34 6.90751 32.5297 4.15075 29.5432C1.71562 27.0162 0.015625 22.8351 0.015625 17ZM26.2507 5.37568C27.3994 5.42162 28.4561 6.38649 28.4561 7.53514V24.1676H29.8345C30.294 24.1676 30.6615 23.8 30.6615 23.3405V22.8811V22.2378V20.7676V12.9108C30.6615 12.4514 31.0291 12.0838 31.5345 12.0838H31.994C32.4534 12.0838 32.8669 12.4514 32.8669 12.9108V20.7676V22.2378V24.2595C32.8669 25.2703 32.1777 26.1892 31.2129 26.4189H28.4561V26.4649C28.4561 27.6135 27.5372 28.5784 26.3886 28.6243H26.3426C20.5075 28.6243 23.5399 28.6243 17.7507 28.6243H17.6588C16.5102 28.5784 15.5913 27.6135 15.5913 26.4649V9.83243H14.2129C13.7534 9.83243 13.3859 10.2 13.3859 10.6595V11.1189V11.7622V13.2324V21.0892C13.3859 21.5486 13.0183 21.9162 12.5588 21.9162H12.0534C11.594 21.9162 11.1805 21.5486 11.1805 21.0892V13.2324V11.7622V9.74054C11.1805 8.72973 11.8697 7.81081 12.8345 7.58108H15.5913V7.53514C15.5913 6.38649 16.5102 5.42162 17.6588 5.37568H26.2507ZM30.6615 8.95946V8.45405C30.6615 7.99459 31.0291 7.58108 31.5345 7.58108H31.994C32.4534 7.58108 32.8669 7.99459 32.8669 8.45405V8.95946C32.8669 9.46486 32.4534 9.83243 31.994 9.83243H31.5345C31.0291 9.83243 30.6615 9.46486 30.6615 8.95946ZM11.1805 25.5459V25.0405C11.1805 24.5811 11.594 24.1676 12.0534 24.1676H12.5588C13.0183 24.1676 13.3859 24.5811 13.3859 25.0405V25.5459C13.3859 26.0054 13.0183 26.4189 12.5588 26.4189H12.0534C11.594 26.4189 11.1805 26.0054 11.1805 25.5459ZM24.1372 24.7189C24.0913 24.8108 24.0913 24.9027 24.0913 25.0405V25.5459C24.0913 25.6838 24.0913 25.7757 24.1372 25.8676C23.9994 26.1892 23.7237 26.373 23.3561 26.373H22.4832C22.4372 26.4189 22.3453 26.4189 22.2534 26.4189H21.794C21.7021 26.4189 21.6102 26.4189 21.5642 26.373H20.6913C20.2318 26.373 19.8183 26.0054 19.8183 25.5V25.0405C19.8183 24.5811 20.2318 24.1676 20.6913 24.1676H21.6561C21.7021 24.1676 21.748 24.1676 21.794 24.1676H22.2534C22.2994 24.1676 22.3453 24.1676 22.3913 24.1676H23.3561C23.7237 24.1676 24.0453 24.3973 24.1372 24.7189ZM19.9102 9.28108C19.9561 9.18919 19.9561 9.0973 19.9561 8.95946V8.45405C19.9561 8.31622 19.9561 8.22432 19.9102 8.13243C20.048 7.81081 20.3237 7.58108 20.6913 7.58108H21.1507H22.8967H23.3561C23.8156 7.58108 24.2291 7.99459 24.2291 8.45405V8.95946C24.2291 9.46486 23.8156 9.83243 23.3561 9.83243H22.8967H21.1507H20.6913C20.3237 9.83243 20.048 9.6027 19.9102 9.28108ZM19.9102 12.0838C25.7453 11.9919 18.3021 12.0838 24.1372 12.0838H24.1832H25.4237H26.2507V12.9108V14.1973V19.8027V21.0892V21.9162H25.4237H24.1832H24.1372C18.3021 21.9162 25.7453 21.9162 19.9102 21.9162H19.8642H18.6237H17.7967V21.0892V19.8027V14.1973V12.9108V12.0838H18.6237H19.8642H19.9102Z" fill="white"/>
</svg>
