<svg width="186" height="144" viewBox="0 0 186 144" fill="none" xmlns="http://www.w3.org/2000/svg">
<path fill-rule="evenodd" clip-rule="evenodd" d="M0.446289 72.4517C0.446289 47.9098 7.59553 30.3246 17.8363 19.6963C29.4297 7.13544 50.1045 0.95166 79.2811 0.95166H106.719C135.895 0.95166 156.57 7.13544 168.357 19.6963C178.404 30.3246 185.554 47.9098 185.554 72.4517C185.554 96.9936 178.404 114.579 168.357 125.207C156.57 137.768 135.895 143.952 106.719 143.952H79.2811C50.1045 143.952 29.4297 137.768 17.8363 125.207C7.59553 114.579 0.446289 96.9936 0.446289 72.4517ZM110.776 23.5611C115.607 23.7544 120.051 27.8125 120.051 32.6436V102.598H125.848C127.78 102.598 129.326 101.052 129.326 99.1192V97.1868V94.4814V88.2976V55.253C129.326 53.3206 130.872 51.7746 132.997 51.7746H134.929C136.861 51.7746 138.6 53.3206 138.6 55.253V88.2976V94.4814V102.984C138.6 107.235 135.702 111.1 131.644 112.067H120.051V112.26C120.051 117.091 116.187 121.149 111.356 121.342H111.163C86.6236 121.342 99.3763 121.342 75.0302 121.342H74.6438C69.8132 121.149 65.9488 117.091 65.9488 112.26V42.3057H60.1521C58.2199 42.3057 56.6741 43.8517 56.6741 45.7841V47.7165V50.4219V56.6057V89.6503C56.6741 91.5827 55.1283 93.1287 53.1961 93.1287H51.0706C49.1384 93.1287 47.3994 91.5827 47.3994 89.6503V56.6057V50.4219V41.9192C47.3994 37.6679 50.2977 33.803 54.3554 32.8368H65.9488V32.6436C65.9488 27.8125 69.8132 23.7544 74.6438 23.5611H110.776ZM129.326 38.6341V36.5084C129.326 34.576 130.872 32.8368 132.997 32.8368H134.929C136.861 32.8368 138.6 34.576 138.6 36.5084V38.6341C138.6 40.7598 136.861 42.3057 134.929 42.3057H132.997C130.872 42.3057 129.326 40.7598 129.326 38.6341ZM47.3994 108.395V106.269C47.3994 104.337 49.1384 102.598 51.0706 102.598H53.1961C55.1283 102.598 56.6741 104.337 56.6741 106.269V108.395C56.6741 110.327 55.1283 112.067 53.1961 112.067H51.0706C49.1384 112.067 47.3994 110.327 47.3994 108.395ZM101.888 104.917C101.695 105.303 101.695 105.689 101.695 106.269V108.395C101.695 108.975 101.695 109.361 101.888 109.748C101.309 111.1 100.149 111.873 98.6034 111.873H94.9322C94.7389 112.067 94.3525 112.067 93.966 112.067H92.0338C91.6474 112.067 91.2609 112.067 91.0677 111.873H87.3965C85.4642 111.873 83.7253 110.327 83.7253 108.202V106.269C83.7253 104.337 85.4642 102.598 87.3965 102.598H91.4542C91.6474 102.598 91.8406 102.598 92.0338 102.598H93.966C94.1593 102.598 94.3525 102.598 94.5457 102.598H98.6034C100.149 102.598 101.502 103.564 101.888 104.917ZM84.1117 39.9868C84.3049 39.6003 84.3049 39.2138 84.3049 38.6341V36.5084C84.3049 35.9287 84.3049 35.5422 84.1117 35.1557C84.6914 33.803 85.8507 32.8368 87.3965 32.8368H89.3287H96.6712H98.6034C100.536 32.8368 102.275 34.576 102.275 36.5084V38.6341C102.275 40.7598 100.536 42.3057 98.6034 42.3057H96.6712H89.3287H87.3965C85.8507 42.3057 84.6914 41.3395 84.1117 39.9868ZM84.1117 51.7746C108.651 51.3881 77.3489 51.7746 101.888 51.7746H102.081H107.298H110.776V55.253V60.6638V84.2395V89.6503V93.1287H107.298H102.081H101.888C77.3489 93.1287 108.651 93.1287 84.1117 93.1287H83.9185H78.7015H75.2234V89.6503V84.2395V60.6638V55.253V51.7746H78.7015H83.9185H84.1117Z" fill="black"/>
</svg>
