<svg width="32" height="32" viewBox="0 0 32 32" fill="none" xmlns="http://www.w3.org/2000/svg">
<path d="M24 21.4931C22.9867 21.4931 22.08 21.8931 21.3867 22.5197L11.88 16.9864C11.9467 16.6797 12 16.3731 12 16.0531C12 15.7331 11.9467 15.4264 11.88 15.1197L21.28 9.63973C22 10.3064 22.9467 10.7197 24 10.7197C26.2133 10.7197 28 8.93306 28 6.71973C28 4.50639 26.2133 2.71973 24 2.71973C21.7867 2.71973 20 4.50639 20 6.71973C20 7.03973 20.0533 7.34639 20.12 7.65306L10.72 13.1331C10 12.4664 9.05333 12.0531 8 12.0531C5.78667 12.0531 4 13.8397 4 16.0531C4 18.2664 5.78667 20.0531 8 20.0531C9.05333 20.0531 10 19.6397 10.72 18.9731L20.2133 24.5197C20.1467 24.7997 20.1067 25.0931 20.1067 25.3864C20.1067 27.5331 21.8533 29.2797 24 29.2797C26.1467 29.2797 27.8933 27.5331 27.8933 25.3864C27.8933 23.2397 26.1467 21.4931 24 21.4931ZM24 5.38639C24.7333 5.38639 25.3333 5.98639 25.3333 6.71973C25.3333 7.45306 24.7333 8.05306 24 8.05306C23.2667 8.05306 22.6667 7.45306 22.6667 6.71973C22.6667 5.98639 23.2667 5.38639 24 5.38639ZM8 17.3864C7.26667 17.3864 6.66667 16.7864 6.66667 16.0531C6.66667 15.3197 7.26667 14.7197 8 14.7197C8.73333 14.7197 9.33333 15.3197 9.33333 16.0531C9.33333 16.7864 8.73333 17.3864 8 17.3864ZM24 26.7464C23.2667 26.7464 22.6667 26.1464 22.6667 25.4131C22.6667 24.6797 23.2667 24.0797 24 24.0797C24.7333 24.0797 25.3333 24.6797 25.3333 25.4131C25.3333 26.1464 24.7333 26.7464 24 26.7464Z" fill="black"/>
</svg>
