<svg width="33" height="32" viewBox="0 0 33 32" fill="none" xmlns="http://www.w3.org/2000/svg">
<path d="M16.0646 12C18.2646 12 20.0646 13.8 20.0646 16C20.0646 18.2 18.2646 20 16.0646 20C13.8646 20 12.0646 18.2 12.0646 16C12.0646 13.8 13.8646 12 16.0646 12ZM16.0646 9.33337C12.3846 9.33337 9.39795 12.32 9.39795 16C9.39795 19.68 12.3846 22.6667 16.0646 22.6667C19.7446 22.6667 22.7313 19.68 22.7313 16C22.7313 12.32 19.7446 9.33337 16.0646 9.33337ZM2.73128 17.3334H5.39795C6.13128 17.3334 6.73128 16.7334 6.73128 16C6.73128 15.2667 6.13128 14.6667 5.39795 14.6667H2.73128C1.99795 14.6667 1.39795 15.2667 1.39795 16C1.39795 16.7334 1.99795 17.3334 2.73128 17.3334ZM26.7313 17.3334H29.3979C30.1313 17.3334 30.7313 16.7334 30.7313 16C30.7313 15.2667 30.1313 14.6667 29.3979 14.6667H26.7313C25.9979 14.6667 25.3979 15.2667 25.3979 16C25.3979 16.7334 25.9979 17.3334 26.7313 17.3334ZM14.7313 2.66671V5.33337C14.7313 6.06671 15.3313 6.66671 16.0646 6.66671C16.7979 6.66671 17.3979 6.06671 17.3979 5.33337V2.66671C17.3979 1.93337 16.7979 1.33337 16.0646 1.33337C15.3313 1.33337 14.7313 1.93337 14.7313 2.66671ZM14.7313 26.6667V29.3334C14.7313 30.0667 15.3313 30.6667 16.0646 30.6667C16.7979 30.6667 17.3979 30.0667 17.3979 29.3334V26.6667C17.3979 25.9334 16.7979 25.3334 16.0646 25.3334C15.3313 25.3334 14.7313 25.9334 14.7313 26.6667ZM8.05128 6.10671C7.53128 5.58671 6.67795 5.58671 6.17128 6.10671C5.65128 6.62671 5.65128 7.48004 6.17128 7.98671L7.58462 9.40004C8.10462 9.92004 8.95795 9.92004 9.46462 9.40004C9.97128 8.88004 9.98462 8.02671 9.46462 7.52004L8.05128 6.10671ZM24.5446 22.6C24.0246 22.08 23.1713 22.08 22.6646 22.6C22.1446 23.12 22.1446 23.9734 22.6646 24.48L24.0779 25.8934C24.5979 26.4134 25.4513 26.4134 25.9579 25.8934C26.4779 25.3734 26.4779 24.52 25.9579 24.0134L24.5446 22.6ZM25.9579 7.98671C26.4779 7.46671 26.4779 6.61337 25.9579 6.10671C25.4379 5.58671 24.5846 5.58671 24.0779 6.10671L22.6646 7.52004C22.1446 8.04004 22.1446 8.89337 22.6646 9.40004C23.1846 9.90671 24.0379 9.92004 24.5446 9.40004L25.9579 7.98671ZM9.46462 24.48C9.98462 23.96 9.98462 23.1067 9.46462 22.6C8.94462 22.08 8.09128 22.08 7.58462 22.6L6.17128 24.0134C5.65128 24.5334 5.65128 25.3867 6.17128 25.8934C6.69128 26.4 7.54462 26.4134 8.05128 25.8934L9.46462 24.48Z" fill="black"/>
</svg>
