<svg width="33" height="32" viewBox="0 0 33 32" fill="none" xmlns="http://www.w3.org/2000/svg">
<path d="M12.5578 7.34667C12.3178 8.2 12.1978 9.09333 12.1978 10C12.1978 15.44 16.6245 19.8667 22.0645 19.8667C22.9711 19.8667 23.8645 19.7467 24.7178 19.5067C23.3311 22.92 19.9711 25.3333 16.0645 25.3333C10.9178 25.3333 6.73112 21.1467 6.73112 16C6.73112 12.0933 9.14445 8.73333 12.5578 7.34667ZM16.0645 4C9.43779 4 4.06445 9.37333 4.06445 16C4.06445 22.6267 9.43779 28 16.0645 28C22.6911 28 28.0645 22.6267 28.0645 16C28.0645 15.3867 28.0111 14.7733 27.9311 14.1867C26.6245 16.0133 24.4911 17.2 22.0645 17.2C18.0911 17.2 14.8645 13.9733 14.8645 10C14.8645 7.58667 16.0511 5.44 17.8778 4.13333C17.2911 4.05333 16.6778 4 16.0645 4Z" fill="white"/>
</svg>
